<?xml version="1.0" encoding="utf-8"?>
<!-- Generator: Adobe Illustrator 16.0.0, SVG Export Plug-In . SVG Version: 6.00 Build 0)  -->
<!DOCTYPE svg PUBLIC "-//W3C//DTD SVG 1.1//EN" "http://www.w3.org/Graphics/SVG/1.1/DTD/svg11.dtd" [
	<!ENTITY ns_extend "http://ns.adobe.com/Extensibility/1.0/">
	<!ENTITY ns_ai "http://ns.adobe.com/AdobeIllustrator/10.0/">
	<!ENTITY ns_graphs "http://ns.adobe.com/Graphs/1.0/">
	<!ENTITY ns_vars "http://ns.adobe.com/Variables/1.0/">
	<!ENTITY ns_imrep "http://ns.adobe.com/ImageReplacement/1.0/">
	<!ENTITY ns_sfw "http://ns.adobe.com/SaveForWeb/1.0/">
	<!ENTITY ns_custom "http://ns.adobe.com/GenericCustomNamespace/1.0/">
	<!ENTITY ns_adobe_xpath "http://ns.adobe.com/XPath/1.0/">
]>
<svg version="1.1" id="Layer_1" xmlns:x="&ns_extend;" xmlns:i="&ns_ai;" xmlns:graph="&ns_graphs;"
	 xmlns="http://www.w3.org/2000/svg" xmlns:xlink="http://www.w3.org/1999/xlink" x="0px" y="0px" width="180px" height="40px"
	 viewBox="-70 0 180 40" enable-background="new -70 0 180 40" xml:space="preserve">
<metadata>
	<sfw  xmlns="&ns_sfw;">
		<slices></slices>
		<sliceSourceBounds  height="40" width="179.988" y="0.5" x="-70.5" bottomLeftOrigin="true"></sliceSourceBounds>
	</sfw>
</metadata>
<path fill="#00A575" d="M-70,14.699v13.09c0,0,30.061,4.518,26.754-26.789h-12.528C-55.774,1-52.442,17.704-70,14.699z"/>
<path fill="#FFFFFF" d="M-70,13.534v12.933c0,0,30.077,4.463,26.77-26.467h-13.536C-56.766,0-52.432,16.502-70,13.534z"/>
<path fill="#00A575" d="M-30,26.875V13.459c0,0-32.129-4.477-28.815,26.541h14.558C-44.258,40-46.469,23.281-30,26.875z"/>
<path fill="#FFFFFF" d="M-30,26.428V13.459c0,0-30.129-4.476-26.815,26.541h13.559C-43.256,40-47.6,23.452-30,26.428z"/>
<g>
	<g>
		<path fill="#00A575" d="M-8.472,18.527h-4.76v-5.24h-3.9v14.2h3.9v-5.561h4.76v5.561h3.9v-14.2h-3.9V18.527z M1.769,21.846h5.16
			v-3.159h-5.16v-2h6.04v-3.4h-9.94v14.2h10.12v-3.4h-6.22V21.846z M13.789,13.287l-5.3,14.2h4.14l0.84-2.781h3.78l0.86,2.781h4.12
			l-5.28-14.2H13.789z M14.048,22.105l1.32-4.758l1.26,4.758H14.048z M26.769,13.287h-3.9v14.2h10.34v-3.4h-6.439V13.287z
			 M31.849,16.687h4.1v10.799h3.9V16.687h4.08v-3.4h-12.08V16.687z M53.528,18.527h-4.76v-5.24h-3.9v14.2h3.9v-5.561h4.76v5.561h3.9
			v-14.2h-3.9V18.527z M69.458,24.615c-0.313,0.314-0.649,0.574-1.01,0.781c-0.359,0.207-0.736,0.357-1.13,0.449
			c-0.394,0.094-0.776,0.141-1.149,0.141c-0.707,0-1.36-0.154-1.961-0.461c-0.6-0.307-1.119-0.719-1.56-1.24
			c-0.44-0.52-0.783-1.115-1.03-1.789c-0.246-0.674-0.369-1.383-0.369-2.129c0-0.667,0.103-1.331,0.31-1.99
			c0.206-0.66,0.517-1.254,0.93-1.78s0.923-0.953,1.53-1.28c0.606-0.326,1.303-0.49,2.09-0.49c0.359,0,0.727,0.04,1.1,0.12
			s0.736,0.214,1.09,0.4s0.681,0.433,0.98,0.739c0.301,0.308,0.557,0.688,0.77,1.141l1.42-0.92c-0.439-0.92-1.113-1.667-2.02-2.24
			s-1.993-0.86-3.26-0.86c-1.066,0-2.02,0.207-2.859,0.62c-0.841,0.414-1.551,0.957-2.131,1.63c-0.58,0.674-1.02,1.434-1.32,2.28
			c-0.299,0.847-0.449,1.697-0.449,2.55c0,0.906,0.162,1.795,0.49,2.668c0.326,0.875,0.786,1.654,1.379,2.342
			c0.594,0.686,1.297,1.242,2.11,1.67c0.813,0.426,1.707,0.639,2.681,0.639c0.547,0,1.105-0.072,1.68-0.219
			c0.572-0.146,1.117-0.361,1.63-0.641s0.974-0.623,1.38-1.029c0.406-0.408,0.723-0.877,0.95-1.41l-1.5-0.82
			C70.028,23.926,69.771,24.303,69.458,24.615z M77.669,13.287l-5.82,14.2h1.92l1.66-4.16h5.96l1.68,4.16h1.92l-5.8-14.2H77.669z
			 M75.788,21.926l2.641-6.559l2.56,6.559H75.788z M95.979,21.467c0.367-0.268,0.68-0.588,0.939-0.961s0.461-0.789,0.601-1.25
			c0.14-0.459,0.21-0.936,0.21-1.43c0-0.56-0.107-1.109-0.32-1.649s-0.51-1.026-0.89-1.46s-0.833-0.78-1.36-1.04
			c-0.527-0.261-1.104-0.391-1.73-0.391h-6.079v14.2h1.8v-5.1h3.76l3.24,5.1h2.04l-3.44-5.439
			C95.201,21.926,95.611,21.732,95.979,21.467z M93.448,20.785h-4.3v-5.898h4.18c0.347,0,0.677,0.076,0.99,0.229
			c0.313,0.153,0.587,0.367,0.82,0.64c0.232,0.273,0.42,0.588,0.56,0.94c0.14,0.354,0.21,0.73,0.21,1.13
			c0,0.387-0.06,0.76-0.18,1.12s-0.287,0.677-0.5,0.95c-0.213,0.273-0.471,0.49-0.77,0.65
			C94.158,20.707,93.821,20.785,93.448,20.785z M102.148,25.887v-4.9h6.66v-1.5h-6.66v-4.6h7.66v-1.601h-9.46v14.2h9.64v-1.6
			H102.148z"/>
	</g>
</g>
<g>
	<g>
		<path fill="#FFFFFF" d="M-8.472,18.121h-4.76v-5.24h-3.9v14.2h3.9V21.52h4.76v5.561h3.9v-14.2h-3.9V18.121z M1.769,21.439h5.16
			v-3.159h-5.16v-2h6.04v-3.4h-9.94v14.2h10.12v-3.4h-6.22V21.439z M13.789,12.88l-5.3,14.2h4.14l0.84-2.781h3.78l0.86,2.781h4.12
			l-5.28-14.2H13.789z M14.048,21.699l1.32-4.758l1.26,4.758H14.048z M26.769,12.88h-3.9v14.2h10.34v-3.4h-6.439V12.88z
			 M31.849,16.281h4.1V27.08h3.9V16.281h4.08v-3.4h-12.08V16.281z M53.528,18.121h-4.76v-5.24h-3.9v14.2h3.9V21.52h4.76v5.561h3.9
			v-14.2h-3.9V18.121z M69.458,24.209c-0.313,0.314-0.649,0.574-1.01,0.781c-0.359,0.207-0.736,0.357-1.13,0.449
			c-0.394,0.094-0.776,0.141-1.149,0.141c-0.707,0-1.36-0.154-1.961-0.461c-0.6-0.307-1.119-0.719-1.56-1.24
			c-0.44-0.52-0.783-1.115-1.03-1.789c-0.246-0.674-0.369-1.383-0.369-2.129c0-0.667,0.103-1.33,0.31-1.989
			c0.206-0.66,0.517-1.254,0.93-1.78s0.923-0.953,1.53-1.28c0.606-0.326,1.303-0.49,2.09-0.49c0.359,0,0.727,0.04,1.1,0.12
			s0.736,0.214,1.09,0.4s0.681,0.433,0.98,0.739c0.301,0.308,0.557,0.688,0.77,1.141l1.42-0.92c-0.439-0.92-1.113-1.667-2.02-2.24
			s-1.993-0.86-3.26-0.86c-1.066,0-2.02,0.207-2.859,0.62c-0.841,0.414-1.551,0.957-2.131,1.63c-0.58,0.674-1.02,1.434-1.32,2.28
			c-0.299,0.847-0.449,1.697-0.449,2.55c0,0.907,0.162,1.795,0.49,2.668c0.326,0.875,0.786,1.654,1.379,2.342
			c0.594,0.686,1.297,1.242,2.11,1.67c0.813,0.426,1.707,0.639,2.681,0.639c0.547,0,1.105-0.072,1.68-0.219
			c0.572-0.146,1.117-0.361,1.63-0.641s0.974-0.623,1.38-1.029c0.406-0.408,0.723-0.877,0.95-1.41l-1.5-0.82
			C70.028,23.52,69.771,23.896,69.458,24.209z M77.669,12.88l-5.82,14.2h1.92l1.66-4.16h5.96l1.68,4.16h1.92l-5.8-14.2H77.669z
			 M75.788,21.52l2.641-6.559l2.56,6.559H75.788z M95.979,21.061c0.367-0.268,0.68-0.587,0.939-0.96s0.461-0.789,0.601-1.25
			c0.14-0.459,0.21-0.936,0.21-1.43c0-0.56-0.107-1.109-0.32-1.649s-0.51-1.026-0.89-1.46s-0.833-0.78-1.36-1.04
			c-0.527-0.261-1.104-0.391-1.73-0.391h-6.079v14.2h1.8v-5.1h3.76l3.24,5.1h2.04l-3.44-5.439
			C95.201,21.52,95.611,21.326,95.979,21.061z M93.448,20.379h-4.3v-5.898h4.18c0.347,0,0.677,0.076,0.99,0.229
			c0.313,0.153,0.587,0.367,0.82,0.64c0.232,0.273,0.42,0.588,0.56,0.94c0.14,0.354,0.21,0.73,0.21,1.13
			c0,0.387-0.06,0.76-0.18,1.12s-0.287,0.677-0.5,0.95s-0.471,0.49-0.77,0.65C94.158,20.299,93.821,20.379,93.448,20.379z
			 M102.148,25.48v-4.9h6.66v-1.5h-6.66v-4.6h7.66V12.88h-9.46v14.2h9.64v-1.6H102.148z"/>
	</g>
</g>
</svg>
